<svg xmlns="http://www.w3.org/2000/svg" width="24" height="24" viewBox="0 0 24 24"><g fill="none" stroke="#ffffff" stroke-width="1.5"><path stroke-linecap="round" d="M10.5 14H17M7 14h.5M7 10.5h.5m-.5 7h.5m3-7H17m-6.5 7H17"/><path d="M8 3.5A1.5 1.5 0 0 1 9.5 2h5A1.5 1.5 0 0 1 16 3.5v1A1.5 1.5 0 0 1 14.5 6h-5A1.5 1.5 0 0 1 8 4.5v-1Z"/><path stroke-linecap="round" d="M21 16c0 2.829 0 4.243-.879 5.122C19.243 22 17.828 22 15 22H9c-2.828 0-4.243 0-5.121-.878C3 20.242 3 18.829 3 16v-3m13-8.998c2.175.012 3.353.109 4.121.877C21 5.758 21 7.172 21 10v2M8 4.002c-2.175.012-3.353.109-4.121.877c-.769.768-.865 1.946-.877 4.121"/></g></svg>